<?xml version="1.0" encoding="utf-8"?>
<!-- Generator: Adobe Illustrator 26.3.1, SVG Export Plug-In . SVG Version: 6.00 Build 0)  -->
<svg version="1.1" id="Layer_1" xmlns="http://www.w3.org/2000/svg" xmlns:xlink="http://www.w3.org/1999/xlink" x="0px" y="0px"
	 viewBox="0 0 300 300" style="enable-background:new 0 0 300 300;" xml:space="preserve">
<style type="text/css">
	.st0{fill:#FFFFFF;}
	.st1{fill:#343A96;}
</style>
<g id="_x31_ifICH.tif">
	<g>
		<path class="st0" d="M37.73,140.59c0.44-2.36,1.05-4.71,1.3-7.1c0.54-5.22,0.84-10.47,1.35-15.7c0.2-2.05,0.67-4.08,1.07-6.11
			c0.32-1.64,1.4-1,2.42-0.8c4.91,1,9.81,2.02,14.75,2.84c1.58,0.26,3.27-0.17,4.91-0.14c0.88,0.02,1.75,0.36,2.62,0.55
			c-0.35,0.88-0.49,1.97-1.09,2.62c-2.63,2.78-4.54,5.78-3.37,9.78c0.31,1.06,1.17,1.95,1.77,2.92c0.74-0.72,1.68-1.33,2.19-2.19
			c5.18-8.87,9.94-18,15.53-26.6c4.78-7.35,10.96-13.62,18.56-18.25c1.53-0.93,3.31-1.5,5.04-2.02c1.64-0.49,2.3,0.59,1.97,2.67
			c-0.99,6.22-1.26,12.64-0.41,18.88c0.53,3.89,0.09,5.64-2.81,6.48c-7.85,2.27-13.67,7.68-19.42,13.08
			c-3.22,3.02-6.14,6.35-9.17,9.57c-0.32,0.34-0.46,0.86-0.69,1.3c4.11,1.83,8.5,0.87,11.96-2.33c5.78-5.35,11.62-10.65,17.47-15.92
			c2.68-2.41,4.39-1.78,5.28,1.72c0.76,3,1.6,5.99,2.53,8.94c0.5,1.59,0.54,2.8-1.12,3.75c-11.07,6.33-19.95,15.36-28.93,24.18
			c-5.4,5.3-10.55,10.83-15.35,16.68c-4.21,5.14-8.37,10.46-10.36,17.02c-0.28,0.91-0.29,1.91-0.52,3.57
			c0.84-0.7,1.19-0.85,1.27-1.09c3.09-8.44,8.5-15.17,15.36-20.8c3-2.46,6.07-4.87,9.22-7.13c1.24-0.89,2.77-1.75,4.23-1.86
			c2.73-0.21,3.38-1.77,4.24-4.01c1.92-4.99,4.47-9.77,7.05-14.44c12.28-1.94,22.36,1.15,26.26,14.44
			c2.39,8.14,1.73,15.99-1.36,23.63c-3.99,9.86-10.77,17.74-19.17,24.06c-5.77,4.34-11.74,8.7-18.23,11.72
			c-7.38,3.44-15.47,6.72-24.45,2.25c-2.18-1.09-3.88-3.11-4.27-5.51c-0.65-3.88-0.77-7.85-0.81-11.8
			c-0.02-2.24-0.97-2.88-4.99-3.73c-3.92-0.83-6.48-4.71-5.66-8.63c2.72-12.92,9.74-23.31,18.09-32.85c2.6-2.97,5.22-5.94,7.84-8.9
			c-2.89-2.79-4.97-2.62-7.26,0.54c-2.95,4.06-6.01,8.05-8.88,12.16c-2.85,4.09-7.27,5.76-11.5,7.68c-2.16,0.98-2.82-0.76-2.94-2.4
			c-0.45-6.3-0.76-12.61-1.15-18.92c-0.06-0.93-0.25-1.84-0.37-2.76C37.73,141.29,37.73,140.94,37.73,140.59z M108.38,169.1
			c-0.27-1.59-0.49-3.19-0.81-4.77c-0.37-1.84-1.53-2.68-3.39-2.33c-1.89,0.36-2.53,1.57-2.23,3.44c0.19,1.19,0.39,2.42,0.27,3.6
			c-0.72,6.9-3.3,13.08-7.99,18.16c-4.37,4.74-9.46,8.71-15.92,10.07c-4.03,0.85-8.23,1.01-12.36,1.23
			c-2.01,0.11-2.57,0.73-2.23,2.69c0.32,1.86,0.33,3.79,0.42,5.69c0.11,2.55,0.9,3.06,3.22,2.16c2-0.78,4-1.58,6.06-2.16
			c8.12-2.26,15.5-6.14,21.84-11.52C103.23,188.62,108.41,180.15,108.38,169.1z M64.26,191.39c0.79,0.11,1.2,0.21,1.62,0.22
			c6.63,0.13,12.03-2.91,16.77-7.06c2.11-1.85,3.68-4.49,5.01-7.03c1.02-1.93-0.37-3.89-2.56-4.03c-1.44-0.09-3.09-0.11-4.31,0.49
			c-2.53,1.25-5.03,2.71-7.2,4.5C69.49,181.87,66.18,185.93,64.26,191.39z M51.24,137.51c0.2,3.1,0.36,5.65,0.57,8.95
			c1.91-1.83,3.31-2.95,4.4-4.32c0.4-0.5,0.37-2.07-0.01-2.32C54.89,138.94,53.33,138.43,51.24,137.51z"/>
		<path class="st0" d="M142.08,244.8c3.13-4.34,6.13-8.13,8.66-12.22c1.07-1.72,1.11-4.06,1.66-6.11c0.28-1.06,0.69-2.09,0.95-3.16
			c0.43-1.81,1.39-3.8-1.73-4.29c-0.95-0.15-1.81-0.86-2.96-1.43c1.09-1.47,2.03-2.86,3.11-4.14c2.64-3.15,5.48-6.12,8.03-9.34
			c3.6,1.42,6.82,3.6,10.3,5.26c1.71,0.81,1.68,1.88,1.07,3.39c-2.41,5.98-5.32,11.84-6.98,18.03c-2.71,10.1-5.04,20.42-2.29,30.95
			c0.64,2.43,2.17,4.64,3.38,6.9c0.26,0.49,0.86,1.08,1.35,1.12c1.56,0.12,3.14,0.01,4.72-0.01c-0.37-1.17-0.49-2.49-1.14-3.48
			c-3.19-4.9-5.38-10.18-5.23-16.05c0.12-4.51,1.29-8.9,4.26-12.56c1.54-1.89,1.98-3.59,1.31-6.32c-1.35-5.56-0.53-11.19,2.85-16.09
			c1.19-1.72,2.48-2.51,4.92-1.08c3.62,2.12,7.71,3.45,11.59,5.14c1.06,0.46,2.08,1.01,3.12,1.52c-0.06,0.35-0.12,0.7-0.17,1.04
			c-2.42,0-4.84,0.09-7.25-0.03c-2.53-0.12-4.37,1.06-5.78,2.92c-0.65,0.85-0.86,2.03-1.49,3.61c1.16-0.35,1.63-0.37,1.94-0.6
			c6.69-4.99,14.11-2.29,17.36,4.82c1.66,3.64,2.39,7.71,3.71,11.52c0.29,0.83,1.29,1.92,2.05,1.99c3.88,0.39,7.78,0.63,11.68,0.65
			c7.55,0.03,15.1,0.06,22.64-0.27c5.44-0.24,10.85-1.13,16.28-1.58c1.41-0.12,2.87,0.32,4.31,0.51c0.05,0.31,0.1,0.63,0.15,0.94
			c-2.56,2.02-5.03,4.15-7.68,6.03c-13.12,9.31-26.96,17.33-42.18,22.73c-7.13,2.53-14.44,4.31-22.1,4.04
			c-1.38-0.05-2.96,0.07-4.09-0.54c-3.77-2.03-6.47,0.13-10.41,2.04c-3.12,1.51-6.84,1.21-9.78-0.64
			c-6.3-3.95-9.87-9.25-12.16-15.52c-1.02-2.8-2.18-5.55-3.41-8.27c-0.31-0.69-1.14-1.15-1.73-1.72c-0.27,0.92-1,2.01-0.72,2.71
			c1.03,2.64,1.93,5.57,3.75,7.61c2.27,2.55,2.52,5.57,3.42,8.48c0.15,0.49,0.15,1.03,0.32,1.52c1.18,3.32,0.81,3.82-2.61,3.42
			c-10.55-1.22-20.32-4.95-29.81-9.49c-4.3-2.06-8.56-4.23-12.55-6.81c5.21-5.63,10.52-11.18,16-16.55
			c0.84-0.82,2.68-1.49,3.61-1.11c0.83,0.34,1.14,2.18,1.5,3.41c0.3,1-0.76,2.93,1.17,2.67c0.93-0.12,2.4-2.09,2.29-3.07
			c-0.47-4.21-1.72-8.34-2.17-12.56c-0.94-8.79-2.82-17.5-0.6-26.5c1.02-4.15,1.81-8.31,3.68-12.16c4.19-8.63,9.81-8.25,15.99-3.38
			c1.75,1.38,3.24,3.12,4.79,4.74c1.13,1.18,1.23,2.37,0.45,3.99c-3.14,6.45-6.62,12.8-8.94,19.55c-2.47,7.17-3.5,14.77-3.05,22.45
			C141.47,243.66,141.65,243.87,142.08,244.8z M228.36,257.63c-0.05-0.24-0.1-0.48-0.15-0.72c-0.68-0.03-1.38-0.19-2.04-0.07
			c-8.62,1.53-17.29,1.92-26.04,1.52c-2.07,2.93-3.83,6.02-5.84,9.31C206.62,267.25,217.17,261.38,228.36,257.63z M177.59,244.94
			c-0.47,0.66-0.97,1.18-1.27,1.8c-2.67,5.52-0.29,11.4,3.1,15.62c1.02,1.27,2.03,0.71,2.78-0.31c1.89-2.58,3.68-5.23,5.57-7.8
			c0.86-1.18,0.73-1.76-0.61-2.59c-2.85-1.77-5.51-3.83-8.25-5.78C178.57,245.64,178.23,245.39,177.59,244.94z M137.4,263.72
			c0.22-0.27,0.45-0.55,0.67-0.82c-1.17-1.29-2.18-2.82-3.59-3.72c-0.42-0.27-1.96,1.22-2.98,1.9c0.09,0.28,0.18,0.56,0.27,0.84
			C133.64,262.52,135.52,263.12,137.4,263.72z M188.9,242.81c0.2-0.17,0.4-0.34,0.6-0.52c-0.73-1.26-1.33-2.65-2.28-3.72
			c-0.28-0.32-1.55,0.22-2.36,0.36c0.16,0.7,0.09,1.71,0.53,2.04C186.43,241.77,187.72,242.22,188.9,242.81z"/>
		<path class="st0" d="M64.16,93.92c20-22.82,37.55-46.91,58.63-67.96c0.17-0.17,0.78,0.09,1.61,0.2c-1.15,2.28-2.28,4.28-3.19,6.38
			c-3.68,8.39-7.58,16.7-10.78,25.27c-1.32,3.54-1.19,7.65-1.48,11.52c-0.15,1.99-0.64,3.05-2.78,3.65
			c-5.66,1.59-9.56,6.03-13.64,9.9c-2.53,2.4-5.07,4.8-7.35,7.43c-6.2,7.14-13.16,13.56-21.68,17.56c-3.13,1.47-6.8,2.13-10.29,2.4
			c-3.94,0.31-7.14-1.88-9.61-4.88c-0.49-0.6-0.64-1.82-0.42-2.61c4.24-15.46,11.03-29.65,21.31-42.03c3.93-4.73,8.09-9.27,12.02-14
			c3.67-4.42,7.56-2.8,9.76,1.98c1.7,3.69,1.63,7.39,0.01,11.06c-0.67,1.51-1.43,2.54-3.59,1.61c-1.04-0.45-3.36,0.12-3.98,1.01
			c-2.87,4.15-5.7,8.41-7.88,12.94c-2.49,5.2-4.3,10.72-6.37,16.12C64.24,92.08,64.3,92.79,64.16,93.92z"/>
		<path class="st0" d="M111.14,235.47c0.55-0.68,1.23-1.29,1.64-2.05c2.48-4.63,4.85-9.32,7.39-13.91c0.43-0.78,1.52-1.19,2.3-1.77
			c0.45,0.85,1.18,1.66,1.31,2.56c0.8,5.72,1.53,11.46,1.95,17.21c-6.37,7.35-12.87,14.59-19.62,21.59
			c-4.35-1.64-8.37-4.11-12.34-6.56c-4.51-2.79-1.66-7.7-1.4-11.29c0.27-3.69,1.24-7.31,2.86-10.65
			c6.79-13.98,15.28-27.01,23.33-40.28c3.05-5.03,6.1-10.07,9.23-15.05c0.56-0.89,1.71-2.26,2.25-2.12
			c0.96,0.25,1.75,1.42,2.44,2.33c1.55,2.05,2.75,4.44,4.56,6.21c1.69,1.66,1.52,2.63,0.14,4.29c-4.24,5.12-8.6,10.17-12.36,15.63
			c-5.5,7.99-10.25,16.43-12.28,26.11c-0.53,2.5-1.31,4.95-1.97,7.43C110.75,235.26,110.95,235.37,111.14,235.47z"/>
		<path class="st0" d="M285.57,221.56c-3.76,5.84-8.3,9.62-13.36,12.65c-16.34,9.77-34.37,11.1-53.04,9.17
			c-0.96-0.1-1.75-0.79-2.02-1.72c-1.15-4.11-2.65-8.11-3.81-12.21c-0.54-1.91,0.19-3.1,2.39-2.77c1.87,0.28,3.71,0.77,5.59,0.98
			c2.91,0.34,5.84,0.72,8.77,0.73c6.41,0.03,12.88,0.36,19.22-0.37c8.06-0.92,16.02-2.7,23.99-4.26c3.13-0.61,6.16-1.66,9.27-2.4
			C283.33,221.17,284.2,221.45,285.57,221.56z"/>
		<path class="st0" d="M97.46,34.67c1.37,0.29,1.93,0.44,2.5,0.53c4.71,0.73,6.26,3.86,3.97,8.06c-2.97,5.47-9.69,6.33-13.31,1.71
			c-2.47-3.15-1.53-8.36,2.12-11.63c8.02-7.19,17.41-12.08,27.24-16.24c1.03-0.44,2.05-0.97,3.13-1.2c0.96-0.2,2-0.04,3.17,0.53
			C116.82,22.48,106.46,26.8,97.46,34.67z"/>
		<path class="st0" d="M90.44,237.05c-0.05,4.61-3.9,7.41-8.39,5.82c-5.32-1.88-8.74-5.79-10.31-11.16
			c-0.96-3.29,1.86-6.85,5.35-7.13C83.49,224.07,90.51,230.63,90.44,237.05z"/>
		<path class="st0" d="M205.76,229.13c-0.15-0.97-0.36-1.44-0.25-1.81c0.31-1.02,0.75-2,1.14-3c1.2,0.63,2.97,0.96,3.47,1.94
			c1.03,2.03,1.36,4.42,2,6.65c0.89,3.08,1.83,6.15,2.66,9.24c0.16,0.6,0.14,1.75-0.13,1.87c-0.61,0.27-1.74,0.34-2.11-0.04
			c-1.44-1.5-2.62-3.24-3.98-4.82c-0.61-0.71-1.41-1.77-2.14-1.78c-6.45-0.09-9.77-7.37-7.62-13.66c0.17-0.5,1.26-1.19,1.55-1.05
			c1.11,0.55,2.46,1.21,2.98,2.21c0.59,1.14,0.32,2.71,0.58,4.07c0.09,0.47,0.65,0.84,0.99,1.26
			C205.28,229.74,205.65,229.28,205.76,229.13z"/>
		<path class="st0" d="M96.62,221.73c0.01,3.91-2.32,6.39-6.19,6.37c-3.57-0.02-6.06-2.96-5.98-6.27c0.08-3.43,2.02-6.32,6.5-6.17
			C94.75,215.78,96.62,217.68,96.62,221.73z"/>
	</g>
</g>
<g id="_x31_ifICH.tif_00000031891174381751690020000011472422095404981393_">
	<g>
		<path class="st1" d="M39.06,138.68c0.43-2.31,1.03-4.6,1.27-6.92c0.53-5.09,0.82-10.21,1.32-15.31c0.2-2,0.65-3.98,1.04-5.96
			c0.32-1.6,1.37-0.98,2.36-0.78c4.79,0.97,9.57,1.97,14.38,2.77c1.55,0.26,3.19-0.17,4.79-0.13c0.85,0.02,1.7,0.35,2.55,0.54
			c-0.34,0.86-0.47,1.93-1.07,2.55c-2.57,2.71-4.43,5.64-3.28,9.54c0.3,1.03,1.14,1.91,1.73,2.85c0.72-0.71,1.64-1.29,2.13-2.13
			c5.05-8.65,9.7-17.56,15.15-25.94c4.66-7.17,10.69-13.28,18.1-17.8c1.49-0.91,3.23-1.46,4.92-1.97c1.6-0.48,2.24,0.58,1.92,2.6
			c-0.97,6.07-1.23,12.32-0.4,18.41c0.52,3.79,0.08,5.5-2.74,6.32c-7.66,2.21-13.33,7.49-18.94,12.76c-3.14,2.94-5.99,6.2-8.94,9.33
			c-0.31,0.33-0.45,0.84-0.67,1.27c4.01,1.79,8.29,0.85,11.66-2.28c5.64-5.22,11.33-10.39,17.04-15.53
			c2.62-2.35,4.28-1.74,5.15,1.68c0.75,2.93,1.56,5.84,2.47,8.72c0.49,1.55,0.52,2.73-1.1,3.66c-10.79,6.17-19.45,14.98-28.22,23.58
			c-5.26,5.17-10.29,10.56-14.97,16.27c-4.11,5.01-8.16,10.2-10.11,16.6c-0.27,0.89-0.28,1.86-0.5,3.48
			c0.82-0.68,1.16-0.83,1.24-1.06c3.01-8.23,8.29-14.79,14.98-20.28c2.93-2.4,5.92-4.75,8.99-6.95c1.21-0.87,2.7-1.71,4.12-1.82
			c2.66-0.21,3.29-1.73,4.14-3.92c1.88-4.87,4.36-9.52,6.87-14.09c11.98-1.89,21.8,1.12,25.61,14.08
			c2.33,7.94,1.69,15.59-1.33,23.05c-3.89,9.62-10.5,17.3-18.7,23.46c-5.63,4.23-11.45,8.48-17.78,11.43
			c-7.2,3.36-15.09,6.56-23.84,2.19c-2.13-1.06-3.78-3.03-4.17-5.37c-0.63-3.79-0.75-7.66-0.79-11.5c-0.02-2.18-0.94-2.81-4.86-3.64
			c-3.82-0.81-6.32-4.59-5.52-8.42c2.66-12.6,9.5-22.74,17.64-32.04c2.54-2.9,5.1-5.79,7.64-8.68c-2.82-2.72-4.85-2.55-7.08,0.52
			c-2.88,3.96-5.86,7.85-8.66,11.86c-2.78,3.99-7.09,5.62-11.21,7.49c-2.11,0.96-2.75-0.74-2.87-2.34
			c-0.44-6.15-0.74-12.3-1.12-18.45c-0.06-0.9-0.24-1.8-0.36-2.7C39.06,139.36,39.06,139.02,39.06,138.68z M107.96,166.48
			c-0.26-1.55-0.48-3.11-0.79-4.65c-0.36-1.79-1.49-2.61-3.31-2.27c-1.84,0.35-2.47,1.53-2.17,3.35c0.19,1.16,0.38,2.36,0.26,3.51
			c-0.7,6.72-3.21,12.75-7.79,17.71c-4.26,4.62-9.22,8.5-15.52,9.82c-3.93,0.83-8.02,0.98-12.06,1.2c-1.96,0.1-2.51,0.71-2.17,2.62
			c0.32,1.82,0.32,3.7,0.4,5.55c0.11,2.49,0.88,2.99,3.14,2.1c1.95-0.76,3.9-1.54,5.91-2.1c7.92-2.2,15.11-5.99,21.3-11.23
			C102.93,185.52,107.99,177.25,107.96,166.48z M64.93,188.21c0.77,0.11,1.17,0.21,1.58,0.21c6.46,0.13,11.73-2.84,16.35-6.88
			c2.06-1.81,3.58-4.38,4.89-6.85c0.99-1.88-0.36-3.8-2.49-3.93c-1.4-0.08-3.01-0.11-4.21,0.48c-2.47,1.22-4.91,2.64-7.02,4.39
			C70.03,178.93,66.8,182.89,64.93,188.21z M52.24,135.67c0.19,3.02,0.35,5.51,0.56,8.73c1.86-1.78,3.23-2.88,4.29-4.21
			c0.39-0.49,0.36-2.02-0.01-2.26C55.79,137.06,54.27,136.56,52.24,135.67z"/>
		<path class="st1" d="M140.82,240.31c3.05-4.24,5.98-7.93,8.45-11.91c1.04-1.68,1.09-3.96,1.62-5.96c0.27-1.03,0.67-2.04,0.92-3.08
			c0.42-1.76,1.36-3.71-1.69-4.19c-0.93-0.14-1.77-0.84-2.89-1.4c1.07-1.43,1.98-2.79,3.03-4.04c2.57-3.07,5.34-5.97,7.83-9.11
			c3.51,1.38,6.66,3.51,10.05,5.13c1.66,0.79,1.63,1.83,1.04,3.31c-2.35,5.83-5.19,11.55-6.81,17.58
			c-2.64,9.85-4.92,19.91-2.23,30.18c0.62,2.37,2.12,4.52,3.3,6.73c0.25,0.48,0.84,1.05,1.31,1.09c1.52,0.12,3.06,0.01,4.6-0.01
			c-0.36-1.14-0.48-2.43-1.11-3.39c-3.11-4.78-5.25-9.93-5.1-15.65c0.11-4.4,1.26-8.68,4.16-12.24c1.5-1.84,1.93-3.5,1.28-6.17
			c-1.32-5.42-0.52-10.92,2.78-15.69c1.16-1.68,2.42-2.45,4.8-1.05c3.53,2.07,7.52,3.37,11.3,5.01c1.03,0.45,2.03,0.98,3.04,1.48
			c-0.06,0.34-0.11,0.68-0.17,1.02c-2.36,0-4.72,0.09-7.07-0.02c-2.47-0.12-4.26,1.03-5.63,2.85c-0.63,0.83-0.84,1.98-1.45,3.52
			c1.14-0.34,1.59-0.36,1.89-0.58c6.52-4.87,13.76-2.23,16.93,4.7c1.62,3.55,2.33,7.51,3.62,11.23c0.28,0.81,1.26,1.87,2,1.94
			c3.78,0.38,7.59,0.62,11.39,0.63c7.36,0.03,14.73,0.06,22.08-0.27c5.3-0.23,10.58-1.1,15.88-1.54c1.38-0.11,2.8,0.32,4.2,0.5
			c0.05,0.31,0.09,0.61,0.14,0.92c-2.49,1.97-4.91,4.05-7.49,5.88c-12.8,9.08-26.29,16.9-41.14,22.17
			c-6.95,2.47-14.08,4.21-21.55,3.94c-1.35-0.05-2.88,0.07-3.99-0.53c-3.68-1.98-6.31,0.13-10.15,1.99
			c-3.05,1.48-6.67,1.18-9.54-0.62c-6.15-3.85-9.62-9.02-11.86-15.14c-1-2.73-2.13-5.42-3.33-8.06c-0.31-0.67-1.11-1.12-1.68-1.67
			c-0.26,0.89-0.97,1.96-0.7,2.65c1.01,2.58,1.88,5.43,3.66,7.43c2.22,2.49,2.46,5.43,3.34,8.27c0.15,0.48,0.15,1.01,0.32,1.48
			c1.15,3.23,0.79,3.72-2.55,3.33c-10.29-1.19-19.82-4.82-29.07-9.26c-4.19-2.01-8.35-4.13-12.24-6.64
			c5.08-5.49,10.26-10.91,15.6-16.14c0.82-0.8,2.61-1.45,3.52-1.08c0.81,0.33,1.11,2.12,1.47,3.32c0.29,0.98-0.74,2.86,1.14,2.61
			c0.91-0.12,2.34-2.04,2.24-2.99c-0.46-4.11-1.67-8.14-2.11-12.25c-0.91-8.57-2.75-17.07-0.59-25.84c1-4.05,1.77-8.1,3.59-11.86
			c4.09-8.42,9.57-8.04,15.6-3.29c1.71,1.35,3.16,3.04,4.67,4.63c1.1,1.15,1.2,2.31,0.43,3.89c-3.06,6.29-6.45,12.49-8.72,19.06
			c-2.41,6.99-3.41,14.4-2.98,21.9C140.23,239.19,140.4,239.4,140.82,240.31z M224.96,252.82c-0.05-0.23-0.1-0.47-0.14-0.7
			c-0.66-0.03-1.35-0.19-1.99-0.07c-8.4,1.49-16.87,1.87-25.39,1.48c-2.02,2.86-3.74,5.87-5.7,9.08
			C203.76,262.2,214.05,256.48,224.96,252.82z M175.46,240.44c-0.46,0.64-0.94,1.15-1.23,1.76c-2.61,5.39-0.28,11.12,3.02,15.23
			c0.99,1.24,1.98,0.69,2.71-0.3c1.84-2.51,3.59-5.1,5.43-7.61c0.84-1.15,0.71-1.72-0.59-2.53c-2.78-1.72-5.37-3.74-8.05-5.63
			C176.41,241.12,176.08,240.88,175.46,240.44z M136.26,258.76c0.22-0.27,0.44-0.54,0.66-0.8c-1.14-1.26-2.13-2.75-3.5-3.63
			c-0.41-0.26-1.91,1.19-2.91,1.85c0.09,0.27,0.18,0.55,0.26,0.82C132.59,257.58,134.42,258.17,136.26,258.76z M186.49,238.37
			c0.19-0.17,0.39-0.34,0.58-0.5c-0.71-1.23-1.3-2.58-2.22-3.63c-0.28-0.31-1.51,0.21-2.3,0.36c0.16,0.68,0.09,1.67,0.51,1.99
			C184.08,237.35,185.33,237.79,186.49,238.37z"/>
		<path class="st1" d="M64.84,93.16c19.5-22.26,36.62-45.75,57.18-66.28c0.17-0.17,0.76,0.08,1.57,0.2
			c-1.12,2.22-2.22,4.18-3.12,6.22c-3.59,8.18-7.4,16.28-10.52,24.64c-1.29,3.45-1.16,7.46-1.44,11.24
			c-0.14,1.94-0.63,2.98-2.71,3.56c-5.52,1.55-9.32,5.88-13.3,9.65c-2.47,2.34-4.94,4.68-7.17,7.25
			c-6.05,6.97-12.83,13.23-21.14,17.12c-3.05,1.43-6.63,2.07-10.03,2.34c-3.85,0.3-6.96-1.83-9.37-4.76
			c-0.48-0.58-0.62-1.78-0.41-2.55c4.13-15.08,10.76-28.91,20.78-40.99c3.83-4.61,7.89-9.04,11.72-13.65
			c3.58-4.31,7.38-2.73,9.52,1.94c1.66,3.6,1.59,7.21,0.01,10.78c-0.65,1.47-1.4,2.48-3.5,1.57c-1.01-0.44-3.28,0.12-3.88,0.98
			c-2.8,4.05-5.56,8.2-7.68,12.62c-2.43,5.07-4.2,10.46-6.21,15.72C64.91,91.36,64.96,92.06,64.84,93.16z"/>
		<path class="st1" d="M110.65,231.21c0.54-0.66,1.2-1.26,1.6-2c2.42-4.51,4.73-9.09,7.21-13.57c0.42-0.76,1.48-1.16,2.24-1.73
			c0.44,0.83,1.15,1.62,1.27,2.5c0.78,5.58,1.49,11.17,1.9,16.79c-6.21,7.17-12.55,14.23-19.14,21.05c-4.25-1.6-8.16-4-12.04-6.4
			c-4.4-2.72-1.62-7.51-1.37-11.01c0.26-3.6,1.21-7.13,2.79-10.38c6.62-13.64,14.9-26.34,22.75-39.28c2.98-4.91,5.95-9.82,9-14.68
			c0.54-0.87,1.67-2.2,2.19-2.06c0.93,0.25,1.71,1.39,2.38,2.28c1.51,2,2.69,4.33,4.45,6.06c1.65,1.62,1.49,2.56,0.14,4.19
			c-4.13,4.99-8.39,9.92-12.05,15.24c-5.37,7.79-9.99,16.02-11.98,25.46c-0.51,2.44-1.27,4.83-1.92,7.24
			C110.27,231,110.46,231.1,110.65,231.21z"/>
		<path class="st1" d="M280.76,217.64c-3.67,5.69-8.09,9.38-13.03,12.34c-15.93,9.53-33.52,10.83-51.73,8.94
			c-0.94-0.1-1.71-0.77-1.97-1.68c-1.12-4.01-2.59-7.91-3.72-11.91c-0.53-1.87,0.19-3.03,2.33-2.7c1.82,0.27,3.62,0.75,5.45,0.96
			c2.84,0.33,5.7,0.7,8.55,0.71c6.25,0.03,12.56,0.35,18.74-0.36c7.86-0.9,15.62-2.63,23.4-4.15c3.05-0.59,6.01-1.62,9.04-2.34
			C278.58,217.26,279.43,217.53,280.76,217.64z"/>
		<path class="st1" d="M97.31,35.38c1.34,0.29,1.88,0.43,2.44,0.52c4.6,0.71,6.1,3.76,3.87,7.86c-2.9,5.33-9.45,6.17-12.98,1.67
			c-2.41-3.07-1.49-8.15,2.06-11.34c7.82-7.01,16.98-11.79,26.57-15.84c1.01-0.43,2-0.94,3.05-1.17c0.94-0.2,1.95-0.04,3.09,0.52
			C116.19,23.49,106.09,27.7,97.31,35.38z"/>
		<path class="st1" d="M90.47,232.75c-0.04,4.5-3.8,7.23-8.19,5.68c-5.19-1.84-8.53-5.64-10.05-10.88
			c-0.94-3.21,1.82-6.68,5.22-6.95C83.68,220.09,90.53,226.49,90.47,232.75z"/>
		<path class="st1" d="M202.93,225.03c-0.14-0.94-0.35-1.4-0.24-1.77c0.3-1,0.73-1.95,1.11-2.92c1.17,0.61,2.9,0.93,3.38,1.89
			c1,1.98,1.33,4.31,1.95,6.48c0.86,3,1.78,5.99,2.6,9.01c0.16,0.59,0.14,1.7-0.13,1.82c-0.59,0.26-1.7,0.33-2.06-0.04
			c-1.4-1.46-2.55-3.16-3.88-4.7c-0.6-0.69-1.38-1.72-2.09-1.73c-6.29-0.09-9.53-7.19-7.43-13.33c0.17-0.49,1.23-1.16,1.51-1.02
			c1.08,0.54,2.4,1.18,2.91,2.16c0.58,1.12,0.31,2.65,0.57,3.97c0.09,0.45,0.63,0.82,0.97,1.23
			C202.46,225.62,202.82,225.17,202.93,225.03z"/>
		<path class="st1" d="M96.49,217.8c0.01,3.81-2.26,6.23-6.04,6.21c-3.48-0.02-5.91-2.89-5.84-6.11c0.08-3.34,1.97-6.16,6.34-6.02
			C94.66,212,96.49,213.85,96.49,217.8z"/>
	</g>
</g>
</svg>
