<?xml version="1.0" encoding="utf-8"?>
<!-- Generator: Adobe Illustrator 26.3.1, SVG Export Plug-In . SVG Version: 6.00 Build 0)  -->
<svg version="1.1" id="Layer_1" xmlns="http://www.w3.org/2000/svg" xmlns:xlink="http://www.w3.org/1999/xlink" x="0px" y="0px"
	 viewBox="0 0 100 20" style="enable-background:new 0 0 100 20;" xml:space="preserve">
<style type="text/css">
	.st0{enable-background:new    ;}
	.st1{fill:#F4F4F5;}
</style>
<g class="st0">
	<path class="st1" d="M7.71,10.35v1.43c0,0.28,0.1,0.52,0.3,0.72c0.2,0.2,0.44,0.3,0.72,0.3h14.24v1.79H8.73
		c-0.78,0-1.44-0.27-1.99-0.82c-0.55-0.55-0.82-1.21-0.82-1.99V7c0-0.77,0.27-1.43,0.82-1.98c0.55-0.55,1.21-0.83,1.99-0.83h14.24
		v1.79H8.73c-0.28,0-0.52,0.1-0.72,0.3c-0.2,0.2-0.3,0.44-0.3,0.72v1.56h15.25v1.79H7.71z"/>
	<path class="st1" d="M24.37,7.01c0-0.78,0.27-1.44,0.82-1.99c0.55-0.55,1.21-0.82,1.99-0.82h11c0.78,0,1.44,0.27,1.99,0.82
		C40.73,5.57,41,6.23,41,7.01v2.56c0,0.78-0.27,1.44-0.82,1.99c-0.55,0.55-1.21,0.82-1.99,0.82H26.17v2.22h-1.79V7.01z M26.17,10.59
		h12.02c0.28,0,0.52-0.1,0.72-0.3c0.2-0.2,0.3-0.44,0.3-0.72V7.01c0-0.28-0.1-0.52-0.3-0.72c-0.2-0.2-0.44-0.3-0.72-0.3h-11
		c-0.28,0-0.52,0.1-0.72,0.3c-0.2,0.2-0.3,0.44-0.3,0.72V10.59z"/>
	<path class="st1" d="M44.2,11.43v3.17H42.4V7.01c0-0.78,0.27-1.44,0.82-1.99c0.55-0.55,1.21-0.82,1.99-0.82h11
		c0.78,0,1.44,0.27,1.99,0.82c0.55,0.55,0.82,1.21,0.82,1.99v7.59h-1.79v-3.17H44.2z M57.24,9.63V7.01c0-0.28-0.1-0.52-0.3-0.72
		c-0.2-0.2-0.44-0.3-0.72-0.3h-11c-0.28,0-0.52,0.1-0.72,0.3c-0.2,0.2-0.3,0.44-0.3,0.72v2.63H57.24z"/>
	<path class="st1" d="M77.07,8.29v3.5c0,0.78-0.28,1.44-0.83,1.99c-0.55,0.55-1.21,0.82-1.99,0.82h-11c-0.78,0-1.44-0.27-1.99-0.82
		c-0.55-0.55-0.82-1.21-0.82-1.99V7c0-0.77,0.27-1.43,0.82-1.98c0.55-0.55,1.21-0.83,1.99-0.83h13.82v1.79H63.25
		c-0.28,0-0.52,0.1-0.72,0.3c-0.2,0.2-0.3,0.44-0.3,0.72v4.79c0,0.28,0.1,0.52,0.3,0.72c0.2,0.2,0.44,0.3,0.72,0.3h11
		c0.28,0,0.52-0.1,0.72-0.3c0.2-0.2,0.3-0.44,0.3-0.72v-1.7h-0.59V8.29H77.07z"/>
	<path class="st1" d="M80.26,10.35v1.43c0,0.28,0.1,0.52,0.3,0.72c0.2,0.2,0.44,0.3,0.72,0.3h14.24v1.79H81.28
		c-0.78,0-1.44-0.27-1.99-0.82c-0.55-0.55-0.82-1.21-0.82-1.99V7c0-0.77,0.27-1.43,0.82-1.98c0.55-0.55,1.21-0.83,1.99-0.83h14.24
		v1.79H81.28c-0.28,0-0.52,0.1-0.72,0.3c-0.2,0.2-0.3,0.44-0.3,0.72v1.56h15.25v1.79H80.26z"/>
</g>
</svg>
