<?xml version="1.0" encoding="utf-8"?>
<!-- Generator: Adobe Illustrator 26.3.1, SVG Export Plug-In . SVG Version: 6.00 Build 0)  -->
<svg version="1.1" id="Layer_1" xmlns="http://www.w3.org/2000/svg" xmlns:xlink="http://www.w3.org/1999/xlink" x="0px" y="0px"
	 viewBox="0 0 800 200" enable-background="new 0 0 800 200" xml:space="preserve">
<g enable-background="new    ">
	<path fill="#F9F9FA" d="M331.4,96.902v7.183c0,1.409,0.5,2.614,1.503,3.615c1.001,1.002,2.206,1.502,3.615,1.502h71.507v9.015
		h-71.507c-3.913,0-7.247-1.377-10.001-4.132c-2.755-2.754-4.132-6.088-4.132-10.001V80.046c0-3.88,1.377-7.198,4.132-9.953
		c2.754-2.786,6.088-4.179,10.001-4.179h71.507v9.015h-71.507c-1.409,0-2.614,0.501-3.615,1.502
		c-1.002,1.002-1.503,2.207-1.503,3.615v7.841h76.625v9.015H331.4z"/>
	<path fill="#F9F9FA" d="M415.067,80.093c0-3.913,1.377-7.246,4.132-10.001c2.754-2.754,6.088-4.132,10.001-4.132h55.262
		c3.912,0,7.246,1.377,10,4.132c2.754,2.755,4.132,6.088,4.132,10.001v12.865c0,3.913-1.378,7.247-4.132,10
		c-2.755,2.755-6.088,4.132-10,4.132h-60.38v11.128h-9.015V80.093z M424.082,98.075h60.38c1.409,0,2.613-0.5,3.615-1.502
		c1.002-1.001,1.503-2.207,1.503-3.615V80.093c0-1.409-0.501-2.613-1.503-3.615c-1.002-1.001-2.206-1.503-3.615-1.503H429.2
		c-1.409,0-2.614,0.502-3.615,1.503c-1.002,1.002-1.503,2.206-1.503,3.615V98.075z"/>
	<path fill="#F9F9FA" d="M514.651,102.301v15.917h-9.014V80.093c0-3.913,1.377-7.246,4.132-10.001
		c2.754-2.754,6.088-4.132,10.001-4.132h55.262c3.912,0,7.246,1.377,10,4.132c2.754,2.755,4.132,6.088,4.132,10.001v38.124h-9.015
		v-15.917H514.651z M580.149,93.286V80.093c0-1.409-0.501-2.613-1.503-3.615c-1.002-1.001-2.206-1.503-3.615-1.503h-55.262
		c-1.409,0-2.614,0.502-3.615,1.503c-1.002,1.002-1.503,2.206-1.503,3.615v13.193H580.149z"/>
	<path fill="#F9F9FA" d="M679.78,86.526v17.559c0,3.913-1.393,7.247-4.179,10.001c-2.754,2.755-6.088,4.132-10,4.132h-55.262
		c-3.913,0-7.247-1.377-10.001-4.132c-2.755-2.754-4.132-6.088-4.132-10.001V80.046c0-3.88,1.377-7.198,4.132-9.953
		c2.754-2.786,6.088-4.179,10.001-4.179h69.394v9.015h-69.394c-1.409,0-2.614,0.501-3.615,1.502
		c-1.002,1.002-1.503,2.207-1.503,3.615v24.039c0,1.409,0.5,2.614,1.503,3.615c1.001,1.002,2.206,1.502,3.615,1.502h55.262
		c1.408,0,2.613-0.5,3.615-1.502c1.002-1.001,1.503-2.206,1.503-3.615V95.54h-2.958v-9.014H679.78z"/>
	<path fill="#F9F9FA" d="M695.79,96.902v7.183c0,1.409,0.5,2.614,1.502,3.615c1.001,1.002,2.206,1.502,3.615,1.502h71.508v9.015
		h-71.508c-3.913,0-7.247-1.377-10.001-4.132c-2.754-2.754-4.132-6.088-4.132-10.001V80.046c0-3.88,1.378-7.198,4.132-9.953
		c2.754-2.786,6.088-4.179,10.001-4.179h71.508v9.015h-71.508c-1.409,0-2.614,0.501-3.615,1.502
		c-1.002,1.002-1.502,2.207-1.502,3.615v7.841h76.625v9.015H695.79z"/>
</g>
<g>
	<path fill="#F9F9FA" d="M30.78,114.51v-0.108c0-0.921,2.004-1.029,2.004-2.979V80.555c0-1.787-2.004-2.004-2.004-2.979v-0.163
		c0-0.433,0.434-0.649,1.137-0.649H41.99c9.043,0,17.059,3.52,17.059,12.509c0,8.286-5.903,12.889-15.813,12.889h-5.578v9.26
		c0,1.949,2.112,2.058,2.112,2.979v0.108c0,0.433-0.433,0.704-1.083,0.704h-6.77C31.213,115.214,30.78,114.942,30.78,114.51z
		 M43.235,99.942c6.606,0,10.776-3.52,10.776-9.477c0-7.906-5.794-11.48-12.022-11.48h-2.924c-0.975,0-1.408,0.596-1.408,1.733
		v17.275c0,1.246,0.649,1.949,1.949,1.949H43.235z"/>
	<path fill="#F9F9FA" d="M61.214,101.838c0-7.528,5.74-13.16,13.159-13.16c8.123,0,13.755,6.173,13.755,13.755
		c0,7.473-5.145,13.321-12.78,13.321C66.737,115.755,61.214,109.202,61.214,101.838z M83.363,104.058
		c0-7.582-4.007-13.592-9.531-13.592c-4.603,0-7.798,3.791-7.798,9.856c0,6.932,4.007,13.646,9.964,13.646
		C80.222,113.968,83.363,110.123,83.363,104.058z"/>
	<path fill="#F9F9FA" d="M129.501,89.87v0.163c0,1.029-1.679,0.92-2.437,3.032l-7.582,21.066c-0.271,0.758-0.596,1.083-1.354,1.083
		H117.1c-0.758,0-1.246-0.379-1.462-1.083l-6.119-19.171l-6.173,19.171c-0.217,0.704-0.65,1.083-1.354,1.083h-0.704
		c-0.812,0-1.191-0.379-1.462-1.083l-8.34-21.066c-0.758-2.058-2.112-2.058-2.112-3.032V89.87c0-0.433,0.325-0.65,0.812-0.65h6.824
		c0.487,0,0.758,0.271,0.758,0.65v0.163c0,0.975-2.274,0.866-1.516,3.086l6.173,17.221l6.39-20.146
		c0.163-0.596,0.379-0.866,0.921-0.866l1.787-0.054c0.596,0,0.758,0.325,0.92,0.866l6.228,20.417l6.011-17.113
		c0.812-2.437-1.95-2.383-1.95-3.412V89.87c0-0.379,0.379-0.65,0.812-0.65h5.199C129.23,89.22,129.501,89.437,129.501,89.87z"/>
	<path fill="#F9F9FA" d="M154.25,108.011c-0.65,3.25-4.224,7.744-10.993,7.744c-6.986,0-12.563-5.307-12.563-13.755
		c0-7.636,5.578-13.322,12.78-13.322c6.498,0,10.072,4.278,10.072,8.015c0,1.733-0.92,2.653-2.545,3.195l-15,4.928
		c1.245,4.657,4.549,7.473,8.935,7.473c4.007,0,6.553-2.111,7.744-4.711C153.167,106.82,154.413,106.982,154.25,108.011z
		 M135.405,100.267c0,0.975,0.054,1.896,0.216,2.762l12.076-4.333c0.921-0.379,1.3-0.975,1.3-1.896c0-2.437-2.599-6.39-6.336-6.39
		C138.275,90.411,135.405,94.743,135.405,100.267z"/>
	<path fill="#F9F9FA" d="M176.127,92.848c0,1.408-0.65,2.545-2.167,2.545c-2.816,0-1.462-3.791-4.819-3.791
		c-2.979,0-4.603,3.412-4.603,7.473v12.347c0,1.896,2.274,1.949,2.274,2.925v0.216c0,0.434-0.379,0.65-1.083,0.65h-6.715
		c-0.704,0-1.083-0.217-1.083-0.65v-0.216c0-0.976,2.004-1.029,2.004-2.925V94.96c0-2.058-2.167-2.112-2.167-3.141v-0.108
		c0-0.379,0.325-0.704,0.812-0.975l4.116-1.841c1.029-0.488,1.408-0.054,1.408,0.758v4.333c1.191-3.466,3.683-5.307,7.04-5.307
		C174.395,88.678,176.127,90.574,176.127,92.848z"/>
	<path fill="#F9F9FA" d="M201.201,108.011c-0.65,3.25-4.224,7.744-10.993,7.744c-6.986,0-12.563-5.307-12.563-13.755
		c0-7.636,5.578-13.322,12.78-13.322c6.498,0,10.072,4.278,10.072,8.015c0,1.733-0.92,2.653-2.545,3.195l-15,4.928
		c1.245,4.657,4.549,7.473,8.935,7.473c4.007,0,6.553-2.111,7.744-4.711C200.118,106.82,201.363,106.982,201.201,108.011z
		 M182.355,100.267c0,0.975,0.054,1.896,0.216,2.762l12.076-4.333c0.921-0.379,1.3-0.975,1.3-1.896c0-2.437-2.599-6.39-6.336-6.39
		C185.226,90.411,182.355,94.743,182.355,100.267z"/>
	<path fill="#F9F9FA" d="M231.581,114.455v0.163c0,0.379-0.271,0.596-0.812,0.596h-4.549c-0.542,0-0.866-0.379-0.92-0.866
		l-0.108-2.708c-1.841,2.708-5.036,4.115-8.231,4.115c-6.606,0-12.509-5.361-12.509-13.592c0-7.907,5.469-13.485,12.672-13.485
		c3.303,0,6.011,1.408,7.852,3.52V80.393c0-2.274-2.274-2.22-2.274-3.195v-0.108c0-0.433,0.325-0.704,0.812-0.92l4.386-1.462
		c1.137-0.433,1.679-0.108,1.679,0.812v35.904C229.577,113.372,231.581,113.535,231.581,114.455z M224.974,106.17h0.054
		l-0.054-2.762v-5.416c0-3.466-3.466-7.582-7.906-7.582c-4.657,0-7.906,4.062-7.96,10.126c-0.108,7.419,3.574,13.376,8.989,13.43
		C221.183,113.968,224.974,111.369,224.974,106.17z"/>
	<path fill="#F9F9FA" d="M279.505,104.653c0,6.77-6.173,10.561-14.784,10.561h-14.838c-0.649,0-1.083-0.217-1.083-0.65v-0.162
		c0-0.975,1.95-1.083,1.95-2.979V80.555c0-1.896-1.95-2.004-1.95-3.033v-0.108c0-0.433,0.434-0.649,1.083-0.649h11.806
		c8.827,0,14.08,4.007,14.08,9.585c0,4.17-2.816,7.203-7.311,8.231C275.606,95.501,279.505,99.292,279.505,104.653z M255.624,91.657
		c0,1.246,0.866,2.058,2.112,2.058h5.632c4.82,0,7.96-2.762,7.96-6.552c0-5.145-3.845-8.177-9.748-8.177l-4.278,0.054
		c-0.975,0-1.625,0.487-1.625,1.787L255.624,91.657z M274.469,105.466c0-5.199-4.278-9.531-12.401-9.531h-6.39v14.459
		c0,1.571,0.921,2.6,2.275,2.6h6.336C270.516,112.993,274.469,110.557,274.469,105.466z"/>
	<path fill="#F9F9FA" d="M308.531,89.87v0.163c0,1.083-1.408,1.029-2.437,3.357l-10.235,22.582
		c-2.112,4.766-4.603,10.723-9.91,10.723c-4.062,0-6.661-2.708-6.661-4.82c0-1.245,0.758-2.166,2.058-2.166
		c2.816,0,2.058,5.091,5.416,5.091c2.329,0,4.711-3.791,6.606-8.557L282.97,93.335c-1.083-2.274-2.599-2.22-2.599-3.303V89.87
		c0-0.433,0.379-0.65,0.812-0.65h7.04c0.434,0,0.758,0.271,0.758,0.65v0.163c0,1.083-1.95,1.029-0.92,3.357l7.798,18.358
		l7.744-17.925c1.191-2.762-2.058-2.708-2.058-3.791V89.87c0-0.379,0.325-0.65,0.812-0.65h5.415
		C308.206,89.22,308.531,89.437,308.531,89.87z"/>
</g>
</svg>
