<?xml version="1.0" encoding="utf-8"?>
<!-- Generator: Adobe Illustrator 26.3.1, SVG Export Plug-In . SVG Version: 6.00 Build 0)  -->
<svg version="1.1" id="Layer_1" xmlns="http://www.w3.org/2000/svg" xmlns:xlink="http://www.w3.org/1999/xlink" x="0px" y="0px"
	 viewBox="0 0 100 20" style="enable-background:new 0 0 100 20;" xml:space="preserve">
<style type="text/css">
	.st0{enable-background:new    ;}
	.st1{fill:#FFFFFF;}
</style>
<g class="st0">
	<path class="st1" d="M41.94,5.66h0.34c0.21,0,0.39,0.17,0.39,0.39v5.69c0,0.21-0.17,0.39-0.39,0.39h-0.34
		c-0.21,0-0.39-0.17-0.39-0.39V9.84c0-0.21-0.17-0.39-0.39-0.39h-7.63c-0.21,0-0.39,0.17-0.39,0.39v1.91c0,0.21-0.17,0.39-0.39,0.39
		h-0.34c-0.21,0-0.39-0.17-0.39-0.39V6.05c0-0.21,0.17-0.39,0.39-0.39h0.34c0.21,0,0.39,0.17,0.39,0.39v1.9
		c0,0.21,0.17,0.39,0.39,0.39h7.63c0.21,0,0.39-0.17,0.39-0.39v-1.9C41.56,5.84,41.73,5.66,41.94,5.66z"/>
	<path class="st1" d="M44.66,10.68v0.92c0,0.29-0.24,0.52-0.52,0.52h-0.06c-0.29,0-0.52-0.24-0.52-0.52V7.41
		c0-0.48,0.17-0.9,0.51-1.24c0.34-0.34,0.75-0.51,1.24-0.51h6.83c0.48,0,0.9,0.17,1.24,0.51c0.34,0.34,0.51,0.75,0.51,1.24v4.19
		c0,0.29-0.24,0.52-0.52,0.52h-0.06c-0.29,0-0.52-0.24-0.52-0.52v-0.92c0-0.29-0.24-0.52-0.52-0.52h-7.05
		C44.89,10.16,44.66,10.39,44.66,10.68z M52.23,9.04c0.29,0,0.52-0.24,0.52-0.52V7.41c0-0.17-0.06-0.32-0.19-0.45
		c-0.12-0.12-0.27-0.19-0.45-0.19h-6.83c-0.17,0-0.32,0.06-0.45,0.19c-0.12,0.12-0.19,0.27-0.19,0.45v1.11
		c0,0.29,0.24,0.52,0.52,0.52H52.23z"/>
	<path class="st1" d="M65.55,5.7v5.93v-0.01c0,0.05-0.01,0.1-0.02,0.15c-0.03,0.13-0.11,0.24-0.22,0.32
		c-0.07,0.05-0.14,0.08-0.22,0.09c-0.14,0.02-0.26,0-0.39-0.07l0.02,0.01l-8.86-5.02v4.38c0,0.36-0.29,0.65-0.65,0.65h-0.47V6.15
		c0-0.21,0.09-0.37,0.27-0.48c0.19-0.11,0.37-0.11,0.56-0.01l8.86,5.02V6.39c0-0.38,0.31-0.69,0.69-0.69H65.55z"/>
	<path class="st1" d="M67.53,10.72v0.85c0,0.31-0.25,0.56-0.56,0.56l0,0c-0.31,0-0.56-0.25-0.56-0.56V7.41
		c0-0.48,0.17-0.9,0.51-1.24c0.34-0.34,0.75-0.51,1.24-0.51H75c0.48,0,0.9,0.17,1.24,0.51c0.34,0.34,0.51,0.75,0.51,1.24v4.16
		c0,0.31-0.25,0.56-0.56,0.56h0c-0.31,0-0.56-0.25-0.56-0.56v-0.85c0-0.31-0.25-0.56-0.56-0.56h-6.99
		C67.78,10.16,67.53,10.41,67.53,10.72z M75.08,9.04c0.31,0,0.56-0.25,0.56-0.56V7.41c0-0.17-0.06-0.32-0.19-0.45
		C75.32,6.84,75.17,6.78,75,6.78h-6.83c-0.17,0-0.32,0.06-0.45,0.19c-0.12,0.12-0.19,0.27-0.19,0.45v1.07
		c0,0.31,0.25,0.56,0.56,0.56H75.08z"/>
</g>
<g id="_x31_ifICH.tif">
	<g>
		<path class="st1" d="M23.25,9.43c0.03-0.15,0.07-0.3,0.08-0.45c0.03-0.33,0.05-0.67,0.09-1c0.01-0.13,0.04-0.26,0.07-0.39
			c0.02-0.11,0.09-0.06,0.15-0.05c0.31,0.06,0.63,0.13,0.94,0.18c0.1,0.02,0.21-0.01,0.31-0.01c0.06,0,0.11,0.02,0.17,0.04
			C25.05,7.79,25.04,7.86,25,7.9c-0.17,0.18-0.29,0.37-0.22,0.62c0.02,0.07,0.07,0.12,0.11,0.19c0.05-0.05,0.11-0.08,0.14-0.14
			c0.33-0.57,0.64-1.15,0.99-1.7c0.31-0.47,0.7-0.87,1.19-1.17c0.1-0.06,0.21-0.1,0.32-0.13c0.1-0.03,0.15,0.04,0.13,0.17
			c-0.06,0.4-0.08,0.81-0.03,1.21c0.03,0.25,0.01,0.36-0.18,0.41c-0.5,0.15-0.87,0.49-1.24,0.84c-0.21,0.19-0.39,0.41-0.59,0.61
			c-0.02,0.02-0.03,0.05-0.04,0.08c0.26,0.12,0.54,0.06,0.76-0.15c0.37-0.34,0.74-0.68,1.12-1.02c0.17-0.15,0.28-0.11,0.34,0.11
			c0.05,0.19,0.1,0.38,0.16,0.57C28,8.52,28,8.59,27.89,8.65c-0.71,0.4-1.27,0.98-1.85,1.54c-0.34,0.34-0.67,0.69-0.98,1.07
			c-0.27,0.33-0.53,0.67-0.66,1.09c-0.02,0.06-0.02,0.12-0.03,0.23c0.05-0.04,0.08-0.05,0.08-0.07c0.2-0.54,0.54-0.97,0.98-1.33
			c0.19-0.16,0.39-0.31,0.59-0.46c0.08-0.06,0.18-0.11,0.27-0.12c0.17-0.01,0.22-0.11,0.27-0.26c0.12-0.32,0.29-0.62,0.45-0.92
			c0.78-0.12,1.43,0.07,1.68,0.92c0.15,0.52,0.11,1.02-0.09,1.51c-0.26,0.63-0.69,1.13-1.23,1.54c-0.37,0.28-0.75,0.56-1.17,0.75
			c-0.47,0.22-0.99,0.43-1.56,0.14c-0.14-0.07-0.25-0.2-0.27-0.35c-0.04-0.25-0.05-0.5-0.05-0.75c0-0.14-0.06-0.18-0.32-0.24
			c-0.25-0.05-0.41-0.3-0.36-0.55c0.17-0.83,0.62-1.49,1.16-2.1c0.17-0.19,0.33-0.38,0.5-0.57c-0.18-0.18-0.32-0.17-0.46,0.03
			c-0.19,0.26-0.38,0.51-0.57,0.78c-0.18,0.26-0.46,0.37-0.73,0.49c-0.14,0.06-0.18-0.05-0.19-0.15c-0.03-0.4-0.05-0.81-0.07-1.21
			c0-0.06-0.02-0.12-0.02-0.18C23.25,9.47,23.25,9.45,23.25,9.43z M27.77,11.25c-0.02-0.1-0.03-0.2-0.05-0.3
			c-0.02-0.12-0.1-0.17-0.22-0.15c-0.12,0.02-0.16,0.1-0.14,0.22c0.01,0.08,0.03,0.15,0.02,0.23c-0.05,0.44-0.21,0.84-0.51,1.16
			c-0.28,0.3-0.6,0.56-1.02,0.64c-0.26,0.05-0.53,0.06-0.79,0.08c-0.13,0.01-0.16,0.05-0.14,0.17c0.02,0.12,0.02,0.24,0.03,0.36
			c0.01,0.16,0.06,0.2,0.21,0.14c0.13-0.05,0.26-0.1,0.39-0.14c0.52-0.14,0.99-0.39,1.4-0.74C27.44,12.49,27.77,11.95,27.77,11.25z
			 M24.95,12.67c0.05,0.01,0.08,0.01,0.1,0.01c0.42,0.01,0.77-0.19,1.07-0.45c0.14-0.12,0.23-0.29,0.32-0.45
			c0.07-0.12-0.02-0.25-0.16-0.26c-0.09-0.01-0.2-0.01-0.28,0.03c-0.16,0.08-0.32,0.17-0.46,0.29
			C25.28,12.06,25.07,12.32,24.95,12.67z M24.12,9.23c0.01,0.2,0.02,0.36,0.04,0.57c0.12-0.12,0.21-0.19,0.28-0.28
			c0.03-0.03,0.02-0.13,0-0.15C24.35,9.32,24.25,9.29,24.12,9.23z"/>
		<path class="st1" d="M29.92,16.08c0.2-0.28,0.39-0.52,0.55-0.78c0.07-0.11,0.07-0.26,0.11-0.39c0.02-0.07,0.04-0.13,0.06-0.2
			c0.03-0.12,0.09-0.24-0.11-0.27c-0.06-0.01-0.12-0.05-0.19-0.09c0.07-0.09,0.13-0.18,0.2-0.26c0.17-0.2,0.35-0.39,0.51-0.6
			c0.23,0.09,0.44,0.23,0.66,0.34c0.11,0.05,0.11,0.12,0.07,0.22c-0.15,0.38-0.34,0.76-0.45,1.15c-0.17,0.65-0.32,1.3-0.15,1.98
			c0.04,0.16,0.14,0.3,0.22,0.44c0.02,0.03,0.06,0.07,0.09,0.07c0.1,0.01,0.2,0,0.3,0c-0.02-0.07-0.03-0.16-0.07-0.22
			c-0.2-0.31-0.34-0.65-0.33-1.03c0.01-0.29,0.08-0.57,0.27-0.8c0.1-0.12,0.13-0.23,0.08-0.4c-0.09-0.36-0.03-0.72,0.18-1.03
			c0.08-0.11,0.16-0.16,0.31-0.07c0.23,0.14,0.49,0.22,0.74,0.33c0.07,0.03,0.13,0.06,0.2,0.1c0,0.02-0.01,0.04-0.01,0.07
			c-0.15,0-0.31,0.01-0.46,0c-0.16-0.01-0.28,0.07-0.37,0.19c-0.04,0.05-0.05,0.13-0.09,0.23c0.07-0.02,0.1-0.02,0.12-0.04
			c0.43-0.32,0.9-0.15,1.11,0.31c0.11,0.23,0.15,0.49,0.24,0.74c0.02,0.05,0.08,0.12,0.13,0.13c0.25,0.02,0.5,0.04,0.75,0.04
			c0.48,0,0.97,0,1.45-0.02c0.35-0.02,0.69-0.07,1.04-0.1c0.09-0.01,0.18,0.02,0.28,0.03c0,0.02,0.01,0.04,0.01,0.06
			c-0.16,0.13-0.32,0.27-0.49,0.39c-0.84,0.59-1.72,1.11-2.7,1.45c-0.46,0.16-0.92,0.28-1.41,0.26c-0.09,0-0.19,0-0.26-0.03
			c-0.24-0.13-0.41,0.01-0.67,0.13c-0.2,0.1-0.44,0.08-0.62-0.04c-0.4-0.25-0.63-0.59-0.78-0.99c-0.07-0.18-0.14-0.35-0.22-0.53
			c-0.02-0.04-0.07-0.07-0.11-0.11c-0.02,0.06-0.06,0.13-0.05,0.17c0.07,0.17,0.12,0.36,0.24,0.49c0.15,0.16,0.16,0.36,0.22,0.54
			c0.01,0.03,0.01,0.07,0.02,0.1c0.08,0.21,0.05,0.24-0.17,0.22c-0.67-0.08-1.3-0.32-1.9-0.61c-0.27-0.13-0.55-0.27-0.8-0.44
			c0.33-0.36,0.67-0.71,1.02-1.06c0.05-0.05,0.17-0.09,0.23-0.07c0.05,0.02,0.07,0.14,0.1,0.22c0.02,0.06-0.05,0.19,0.07,0.17
			c0.06-0.01,0.15-0.13,0.15-0.2c-0.03-0.27-0.11-0.53-0.14-0.8c-0.06-0.56-0.18-1.12-0.04-1.69c0.07-0.27,0.12-0.53,0.24-0.78
			c0.27-0.55,0.63-0.53,1.02-0.22c0.11,0.09,0.21,0.2,0.31,0.3c0.07,0.08,0.08,0.15,0.03,0.25c-0.2,0.41-0.42,0.82-0.57,1.25
			c-0.16,0.46-0.22,0.94-0.2,1.43C29.88,16.01,29.89,16.02,29.92,16.08z M35.43,16.9c0-0.02-0.01-0.03-0.01-0.05
			c-0.04,0-0.09-0.01-0.13,0c-0.55,0.1-1.11,0.12-1.66,0.1c-0.13,0.19-0.24,0.38-0.37,0.59C34.04,17.52,34.72,17.14,35.43,16.9z
			 M32.19,16.09c-0.03,0.04-0.06,0.08-0.08,0.12c-0.17,0.35-0.02,0.73,0.2,1c0.06,0.08,0.13,0.05,0.18-0.02
			c0.12-0.16,0.24-0.33,0.36-0.5c0.06-0.08,0.05-0.11-0.04-0.17c-0.18-0.11-0.35-0.24-0.53-0.37
			C32.25,16.14,32.23,16.12,32.19,16.09z M29.62,17.29c0.01-0.02,0.03-0.04,0.04-0.05c-0.07-0.08-0.14-0.18-0.23-0.24
			c-0.03-0.02-0.13,0.08-0.19,0.12c0.01,0.02,0.01,0.04,0.02,0.05C29.38,17.22,29.5,17.25,29.62,17.29z M32.91,15.96
			c0.01-0.01,0.03-0.02,0.04-0.03c-0.05-0.08-0.08-0.17-0.15-0.24c-0.02-0.02-0.1,0.01-0.15,0.02c0.01,0.04,0.01,0.11,0.03,0.13
			C32.75,15.89,32.84,15.92,32.91,15.96z"/>
		<path class="st1" d="M24.94,6.44c1.28-1.46,2.4-3,3.75-4.34c0.01-0.01,0.05,0.01,0.1,0.01c-0.07,0.15-0.15,0.27-0.2,0.41
			c-0.23,0.54-0.48,1.07-0.69,1.61c-0.08,0.23-0.08,0.49-0.09,0.74C27.79,5,27.76,5.07,27.62,5.1c-0.36,0.1-0.61,0.39-0.87,0.63
			c-0.16,0.15-0.32,0.31-0.47,0.47c-0.4,0.46-0.84,0.87-1.39,1.12c-0.2,0.09-0.43,0.14-0.66,0.15c-0.25,0.02-0.46-0.12-0.61-0.31
			c-0.03-0.04-0.04-0.12-0.03-0.17c0.27-0.99,0.7-1.89,1.36-2.69c0.25-0.3,0.52-0.59,0.77-0.89c0.23-0.28,0.48-0.18,0.62,0.13
			c0.11,0.24,0.1,0.47,0,0.71c-0.04,0.1-0.09,0.16-0.23,0.1c-0.07-0.03-0.21,0.01-0.25,0.06c-0.18,0.27-0.36,0.54-0.5,0.83
			c-0.16,0.33-0.27,0.69-0.41,1.03C24.95,6.32,24.95,6.37,24.94,6.44z"/>
		<path class="st1" d="M27.94,15.49c0.04-0.04,0.08-0.08,0.1-0.13c0.16-0.3,0.31-0.6,0.47-0.89c0.03-0.05,0.1-0.08,0.15-0.11
			c0.03,0.05,0.08,0.11,0.08,0.16c0.05,0.37,0.1,0.73,0.12,1.1c-0.41,0.47-0.82,0.93-1.25,1.38c-0.28-0.1-0.53-0.26-0.79-0.42
			c-0.29-0.18-0.11-0.49-0.09-0.72c0.02-0.24,0.08-0.47,0.18-0.68c0.43-0.89,0.98-1.73,1.49-2.57c0.2-0.32,0.39-0.64,0.59-0.96
			c0.04-0.06,0.11-0.14,0.14-0.14c0.06,0.02,0.11,0.09,0.16,0.15c0.1,0.13,0.18,0.28,0.29,0.4c0.11,0.11,0.1,0.17,0.01,0.27
			c-0.27,0.33-0.55,0.65-0.79,1c-0.35,0.51-0.65,1.05-0.78,1.67c-0.03,0.16-0.08,0.32-0.13,0.47
			C27.92,15.47,27.93,15.48,27.94,15.49z"/>
		<path class="st1" d="M39.09,14.6c-0.24,0.37-0.53,0.61-0.85,0.81c-1.04,0.62-2.2,0.71-3.39,0.59c-0.06-0.01-0.11-0.05-0.13-0.11
			c-0.07-0.26-0.17-0.52-0.24-0.78c-0.03-0.12,0.01-0.2,0.15-0.18c0.12,0.02,0.24,0.05,0.36,0.06c0.19,0.02,0.37,0.05,0.56,0.05
			c0.41,0,0.82,0.02,1.23-0.02c0.51-0.06,1.02-0.17,1.53-0.27c0.2-0.04,0.39-0.11,0.59-0.15C38.95,14.57,39,14.59,39.09,14.6z"/>
		<path class="st1" d="M27.07,2.66c0.09,0.02,0.12,0.03,0.16,0.03c0.3,0.05,0.4,0.25,0.25,0.52c-0.19,0.35-0.62,0.4-0.85,0.11
			c-0.16-0.2-0.1-0.53,0.14-0.74c0.51-0.46,1.11-0.77,1.74-1.04c0.07-0.03,0.13-0.06,0.2-0.08c0.06-0.01,0.13,0,0.2,0.03
			C28.31,1.88,27.64,2.15,27.07,2.66z"/>
		<path class="st1" d="M26.62,15.59c0,0.29-0.25,0.47-0.54,0.37c-0.34-0.12-0.56-0.37-0.66-0.71c-0.06-0.21,0.12-0.44,0.34-0.46
			C26.18,14.76,26.62,15.18,26.62,15.59z"/>
		<path class="st1" d="M33.99,15.08c-0.01-0.06-0.02-0.09-0.02-0.12c0.02-0.07,0.05-0.13,0.07-0.19c0.08,0.04,0.19,0.06,0.22,0.12
			c0.07,0.13,0.09,0.28,0.13,0.42c0.06,0.2,0.12,0.39,0.17,0.59c0.01,0.04,0.01,0.11-0.01,0.12c-0.04,0.02-0.11,0.02-0.13,0
			c-0.09-0.1-0.17-0.21-0.25-0.31c-0.04-0.05-0.09-0.11-0.14-0.11c-0.41-0.01-0.62-0.47-0.49-0.87c0.01-0.03,0.08-0.08,0.1-0.07
			c0.07,0.04,0.16,0.08,0.19,0.14c0.04,0.07,0.02,0.17,0.04,0.26c0.01,0.03,0.04,0.05,0.06,0.08
			C33.96,15.12,33.98,15.09,33.99,15.08z"/>
		<path class="st1" d="M27.02,14.61c0,0.25-0.15,0.41-0.4,0.41c-0.23,0-0.39-0.19-0.38-0.4c0.01-0.22,0.13-0.4,0.42-0.39
			C26.9,14.23,27.02,14.35,27.02,14.61z"/>
	</g>
</g>
</svg>
