<?xml version="1.0" encoding="utf-8"?>
<!-- Generator: Adobe Illustrator 26.3.1, SVG Export Plug-In . SVG Version: 6.00 Build 0)  -->
<svg version="1.1" id="Layer_1" xmlns="http://www.w3.org/2000/svg" xmlns:xlink="http://www.w3.org/1999/xlink" x="0px" y="0px"
	 viewBox="0 0 1080 1080" enable-background="new 0 0 1080 1080" xml:space="preserve">
<g enable-background="new    ">
	<path fill="none" stroke="#000000" stroke-width="6" stroke-miterlimit="10" d="M257.547,89.186h6.443
		c3.986,0,7.217,3.231,7.217,7.217v106.593c0,3.986-3.231,7.217-7.217,7.217h-6.443c-3.986,0-7.217-3.231-7.217-7.217v-35.694
		c0-3.986-3.231-7.217-7.217-7.217H100.309c-3.986,0-7.217,3.231-7.217,7.217v35.694c0,3.986-3.231,7.217-7.217,7.217h-6.443
		c-3.986,0-7.217-3.231-7.217-7.217V96.403c0-3.986,3.231-7.217,7.217-7.217h6.443c3.986,0,7.217,3.231,7.217,7.217v35.586
		c0,3.986,3.231,7.217,7.217,7.217h142.804c3.986,0,7.217-3.231,7.217-7.217V96.403C250.33,92.417,253.561,89.186,257.547,89.186z"
		/>
	<path fill="none" stroke="#000000" stroke-width="6" stroke-miterlimit="10" d="M338.397,183.18v17.202
		c0,5.429-4.401,9.831-9.831,9.831h-1.217c-5.429,0-9.831-4.401-9.831-9.831v-78.466c0-9.062,3.189-16.782,9.569-23.162
		c6.379-6.379,14.099-9.569,23.162-9.569h127.987c9.061,0,16.782,3.19,23.161,9.569c6.378,6.38,9.569,14.101,9.569,23.162v78.466
		c0,5.429-4.401,9.831-9.831,9.831h-1.217c-5.429,0-9.831-4.401-9.831-9.831V183.18c0-5.429-4.401-9.831-9.831-9.831H348.228
		C342.798,173.349,338.397,177.751,338.397,183.18z M480.26,152.472c5.429,0,9.831-4.401,9.831-9.831v-20.725
		c0-3.263-1.16-6.052-3.48-8.373c-2.321-2.319-5.11-3.481-8.372-3.481H350.25c-3.263,0-6.054,1.162-8.373,3.481
		c-2.322,2.321-3.48,5.11-3.48,8.373v20.725c0,5.429,4.401,9.831,9.831,9.831H480.26z"/>
	<path fill="none" stroke="#000000" stroke-width="6" stroke-miterlimit="10" d="M759.535,89.837V200.86v-0.217
		c0,1.017-0.108,1.957-0.326,2.827c-0.623,2.488-1.994,4.475-4.116,5.962c-1.245,0.873-2.687,1.467-4.186,1.716
		c-2.544,0.422-4.959-0.035-7.248-1.37l0.326,0.217l-165.829-94.059v81.93c0,6.699-5.431,12.129-12.129,12.129h-8.748V98.21
		c0-3.985,1.703-6.995,5.111-9.024c3.479-2.03,6.959-2.067,10.439-0.11l165.828,93.953v-80.304c0-7.117,5.77-12.887,12.887-12.887
		H759.535z"/>
	<path fill="none" stroke="#000000" stroke-width="6" stroke-miterlimit="10" d="M826.724,183.788v15.986
		c0,5.765-4.674,10.439-10.439,10.439l0,0c-5.765,0-10.439-4.674-10.439-10.439v-77.857c0-9.062,3.189-16.782,9.569-23.162
		c6.379-6.379,14.099-9.569,23.162-9.569h127.987c9.062,0,16.782,3.19,23.162,9.569c6.377,6.38,9.569,14.101,9.569,23.162v77.857
		c0,5.765-4.674,10.439-10.439,10.439h-0.001c-5.765,0-10.439-4.674-10.439-10.439v-15.986c0-5.765-4.674-10.439-10.439-10.439
		H837.163C831.398,173.349,826.724,178.023,826.724,183.788z M967.978,152.472c5.765,0,10.439-4.674,10.439-10.439v-20.117
		c0-3.263-1.16-6.052-3.479-8.373c-2.321-2.319-5.11-3.481-8.373-3.481H838.577c-3.263,0-6.054,1.162-8.373,3.481
		c-2.322,2.321-3.48,5.11-3.48,8.373v20.117c0,5.765,4.674,10.439,10.439,10.439H967.978z"/>
</g>
</svg>
